<svg width="9" height="16" viewBox="0 0 9 16" fill="none" xmlns="http://www.w3.org/2000/svg">
<path d="M8.78023 14.7589C8.84991 14.8265 8.90518 14.9067 8.94288 14.995C8.98059 15.0833 9 15.1779 9 15.2735C9 15.369 8.98059 15.4636 8.94288 15.5519C8.90518 15.6402 8.84991 15.7204 8.78023 15.788C8.71056 15.8555 8.62784 15.9091 8.53681 15.9457C8.44577 15.9823 8.3482 16.0011 8.24967 16.0011C8.15113 16.0011 8.05356 15.9823 7.96253 15.9457C7.87149 15.9091 7.78878 15.8555 7.7191 15.788L0.21994 8.51562C0.150216 8.44808 0.094903 8.36787 0.057164 8.27959C0.019425 8.1913 0 8.09667 0 8.0011C0 7.90553 0.019425 7.8109 0.057164 7.72261C0.094903 7.63433 0.150216 7.55412 0.21994 7.48658L7.7191 0.214219C7.85982 0.0777605 8.05067 0.00109863 8.24967 0.00109863C8.44867 0.00109864 8.63952 0.0777605 8.78023 0.214219C8.92095 0.350679 9 0.535757 9 0.728739C9 0.921721 8.92095 1.1068 8.78023 1.24326L1.8107 8.0011L8.78023 14.7589Z" fill="#D9D9D9"/>
</svg>
