<svg width="22" height="22" viewBox="0 0 22 22" fill="none" xmlns="http://www.w3.org/2000/svg">
<path d="M11 3L3 8V17H19.5L19 8.5L13 4L11 3Z" fill="#D9D9D9"/>
<path d="M20.625 16.5H19.9375V8.47944C19.9375 8.25316 19.8817 8.03037 19.7749 7.83084C19.6682 7.63131 19.5139 7.46121 19.3256 7.33562L11.7631 2.29366C11.5373 2.14309 11.2719 2.06274 11.0004 2.06274C10.729 2.06274 10.4636 2.14309 10.2377 2.29366L2.67523 7.33562C2.48684 7.46111 2.33234 7.63117 2.22545 7.8307C2.11856 8.03024 2.06259 8.25308 2.0625 8.47944V16.5H1.375C1.19266 16.5 1.0178 16.5724 0.888864 16.7014C0.759933 16.8303 0.6875 17.0052 0.6875 17.1875C0.6875 17.3698 0.759933 17.5447 0.888864 17.6736C1.0178 17.8026 1.19266 17.875 1.375 17.875H20.625C20.8073 17.875 20.9822 17.8026 21.1111 17.6736C21.2401 17.5447 21.3125 17.3698 21.3125 17.1875C21.3125 17.0052 21.2401 16.8303 21.1111 16.7014C20.9822 16.5724 20.8073 16.5 20.625 16.5ZM3.4375 8.47944L11 3.43749L18.5625 8.47859V16.5H16.5V11.6875C16.5 11.5052 16.4276 11.3303 16.2986 11.2014C16.1697 11.0724 15.9948 11 15.8125 11H6.1875C6.00516 11 5.8303 11.0724 5.70136 11.2014C5.57243 11.3303 5.5 11.5052 5.5 11.6875V16.5H3.4375V8.47944ZM15.125 12.375V13.75H11.6875V12.375H15.125ZM10.3125 13.75H6.875V12.375H10.3125V13.75ZM6.875 15.125H10.3125V16.5H6.875V15.125ZM11.6875 15.125H15.125V16.5H11.6875V15.125Z" fill="#1C1C1C"/>
</svg>
