<svg width="26" height="22" viewBox="0 0 26 22" fill="none" xmlns="http://www.w3.org/2000/svg">
<path d="M25.7075 6.29329L19.7075 0.293288C19.5676 0.153276 19.3894 0.0579087 19.1953 0.0192583C19.0012 -0.0193921 18.8 0.000412494 18.6172 0.076165C18.4344 0.151917 18.2782 0.280212 18.1683 0.444805C18.0584 0.609399 17.9998 0.802892 18 1.00079V6.00079H17.625C14.7415 5.99804 11.939 6.9546 9.65898 8.7198C7.37893 10.485 5.75087 12.9585 5.03125 15.7508C4.96495 16.0077 5.00342 16.2805 5.13821 16.509C5.273 16.7376 5.49307 16.9032 5.75 16.9695C6.00693 17.0358 6.27967 16.9974 6.50823 16.8626C6.73679 16.7278 6.90245 16.5077 6.96875 16.2508C7.57865 13.8887 8.9565 11.7963 10.8855 10.3028C12.8146 8.80937 15.1854 7.99956 17.625 8.00079H18V13.0008C17.9998 13.1987 18.0584 13.3922 18.1683 13.5568C18.2782 13.7214 18.4344 13.8497 18.6172 13.9254C18.8 14.0012 19.0012 14.021 19.1953 13.9823C19.3894 13.9437 19.5676 13.8483 19.7075 13.7083L25.7075 7.70829C25.8005 7.61542 25.8742 7.50513 25.9246 7.38373C25.9749 7.26233 26.0008 7.1322 26.0008 7.00079C26.0008 6.86937 25.9749 6.73925 25.9246 6.61785C25.8742 6.49645 25.8005 6.38616 25.7075 6.29329ZM20 10.587V3.41454L23.5863 7.00079L20 10.587ZM22 21.0008C22 21.266 21.8946 21.5204 21.7071 21.7079C21.5196 21.8954 21.2652 22.0008 21 22.0008H2C1.46957 22.0008 0.960859 21.7901 0.585786 21.415C0.210714 21.0399 0 20.5312 0 20.0008V5.00079C0 4.73557 0.105357 4.48122 0.292893 4.29368C0.48043 4.10614 0.734784 4.00079 1 4.00079C1.26522 4.00079 1.51957 4.10614 1.70711 4.29368C1.89464 4.48122 2 4.73557 2 5.00079V20.0008H21C21.2652 20.0008 21.5196 20.1061 21.7071 20.2937C21.8946 20.4812 22 20.7356 22 21.0008Z" fill="#D9D9DC"/>
</svg>
