<svg width="18" height="18" viewBox="0 0 18 18" fill="none" xmlns="http://www.w3.org/2000/svg">
<path fill-rule="evenodd" clip-rule="evenodd" d="M9 15.75C12.7279 15.75 15.75 12.7279 15.75 9C15.75 5.27208 12.7279 2.25 9 2.25C5.27208 2.25 2.25 5.27208 2.25 9C2.25 12.7279 5.27208 15.75 9 15.75ZM9 16.875C13.3492 16.875 16.875 13.3492 16.875 9C16.875 4.65076 13.3492 1.125 9 1.125C4.65076 1.125 1.125 4.65076 1.125 9C1.125 13.3492 4.65076 16.875 9 16.875Z" fill="black"/>
<circle cx="9" cy="9" r="7" fill="#D9D9D9"/>
<path d="M11.9773 4.27273V13H10.9545L6.19886 6.14773H6.11364V13H5.05682V4.27273H6.07955L10.8523 11.142H10.9375V4.27273H11.9773Z" fill="black"/>
</svg>
