<svg width="18" height="18" viewBox="0 0 18 18" fill="none" xmlns="http://www.w3.org/2000/svg">
<path fill-rule="evenodd" clip-rule="evenodd" d="M9 15.75C12.7279 15.75 15.75 12.7279 15.75 9C15.75 5.27208 12.7279 2.25 9 2.25C5.27208 2.25 2.25 5.27208 2.25 9C2.25 12.7279 5.27208 15.75 9 15.75ZM9 16.875C13.3492 16.875 16.875 13.3492 16.875 9C16.875 4.65076 13.3492 1.125 9 1.125C4.65076 1.125 1.125 4.65076 1.125 9C1.125 13.3492 4.65076 16.875 9 16.875Z" fill="black"/>
<circle cx="9" cy="9" r="7" fill="#D9D9D9"/>
<path d="M13.4205 8.63636C13.4205 9.55682 13.2543 10.3523 12.9219 11.0227C12.5895 11.6932 12.1335 12.2102 11.554 12.5739C10.9744 12.9375 10.3125 13.1193 9.56818 13.1193C8.82386 13.1193 8.16193 12.9375 7.58239 12.5739C7.00284 12.2102 6.54688 11.6932 6.21449 11.0227C5.8821 10.3523 5.71591 9.55682 5.71591 8.63636C5.71591 7.71591 5.8821 6.92045 6.21449 6.25C6.54688 5.57955 7.00284 5.0625 7.58239 4.69886C8.16193 4.33523 8.82386 4.15341 9.56818 4.15341C10.3125 4.15341 10.9744 4.33523 11.554 4.69886C12.1335 5.0625 12.5895 5.57955 12.9219 6.25C13.2543 6.92045 13.4205 7.71591 13.4205 8.63636ZM12.3977 8.63636C12.3977 7.88068 12.2713 7.2429 12.0185 6.72301C11.7685 6.20312 11.429 5.80966 11 5.54261C10.5739 5.27557 10.0966 5.14205 9.56818 5.14205C9.03977 5.14205 8.56108 5.27557 8.1321 5.54261C7.70597 5.80966 7.36648 6.20312 7.11364 6.72301C6.86364 7.2429 6.73864 7.88068 6.73864 8.63636C6.73864 9.39205 6.86364 10.0298 7.11364 10.5497C7.36648 11.0696 7.70597 11.4631 8.1321 11.7301C8.56108 11.9972 9.03977 12.1307 9.56818 12.1307C10.0966 12.1307 10.5739 11.9972 11 11.7301C11.429 11.4631 11.7685 11.0696 12.0185 10.5497C12.2713 10.0298 12.3977 9.39205 12.3977 8.63636Z" fill="black"/>
</svg>
