<svg width="18" height="18" viewBox="0 0 18 18" fill="none" xmlns="http://www.w3.org/2000/svg">
<path fill-rule="evenodd" clip-rule="evenodd" d="M9 15.75C12.7279 15.75 15.75 12.7279 15.75 9C15.75 5.27208 12.7279 2.25 9 2.25C5.27208 2.25 2.25 5.27208 2.25 9C2.25 12.7279 5.27208 15.75 9 15.75ZM9 16.875C13.3492 16.875 16.875 13.3492 16.875 9C16.875 4.65076 13.3492 1.125 9 1.125C4.65076 1.125 1.125 4.65076 1.125 9C1.125 13.3492 4.65076 16.875 9 16.875Z" fill="black"/>
<circle cx="9" cy="9" r="7" fill="#D9D9D9"/>
<path d="M6.05682 13V4.27273H9.00568C9.69034 4.27273 10.25 4.39631 10.6847 4.64347C11.1222 4.88778 11.446 5.21875 11.6562 5.63636C11.8665 6.05398 11.9716 6.51989 11.9716 7.03409C11.9716 7.5483 11.8665 8.01562 11.6562 8.43608C11.4489 8.85653 11.1278 9.19176 10.6932 9.44176C10.2585 9.68892 9.7017 9.8125 9.02273 9.8125H6.90909V8.875H8.98864C9.45739 8.875 9.83381 8.79403 10.1179 8.6321C10.402 8.47017 10.608 8.25142 10.7358 7.97585C10.8665 7.69744 10.9318 7.38352 10.9318 7.03409C10.9318 6.68466 10.8665 6.37216 10.7358 6.09659C10.608 5.82102 10.4006 5.60511 10.1136 5.44886C9.8267 5.28977 9.44602 5.21023 8.97159 5.21023H7.11364V13H6.05682Z" fill="black"/>
</svg>
