<svg width="32" height="32" viewBox="0 0 32 32" fill="none" xmlns="http://www.w3.org/2000/svg">
<path d="M28 15.9996C28.0018 17.6825 27.6487 19.3469 26.9638 20.8841C26.2788 22.4213 25.2775 23.7968 24.025 24.9209C23.272 23.4397 22.1237 22.196 20.7072 21.3274C19.2908 20.4588 17.6616 19.9992 16 19.9996C16.9889 19.9996 17.9556 19.7064 18.7779 19.157C19.6001 18.6076 20.241 17.8267 20.6194 16.913C20.9978 15.9994 21.0969 14.9941 20.9039 14.0242C20.711 13.0543 20.2348 12.1634 19.5355 11.4641C18.8363 10.7648 17.9454 10.2886 16.9755 10.0957C16.0055 9.90277 15.0002 10.0018 14.0866 10.3802C13.173 10.7587 12.3921 11.3995 11.8427 12.2218C11.2932 13.044 11 14.0107 11 14.9996C11 16.3257 11.5268 17.5975 12.4645 18.5352C13.4021 19.4728 14.6739 19.9996 16 19.9996C14.3384 19.9992 12.7092 20.4588 11.2928 21.3274C9.87634 22.196 8.72801 23.4397 7.975 24.9209C6.48782 23.5832 5.35862 21.895 4.69008 20.0097C4.02153 18.1245 3.83487 16.102 4.14705 14.1262C4.45922 12.1504 5.26035 10.2841 6.47756 8.69676C7.69478 7.10946 9.28947 5.85162 11.1166 5.03761C12.9438 4.2236 14.9454 3.87925 16.9396 4.03587C18.9337 4.19249 20.8571 4.84511 22.5348 5.93439C24.2124 7.02367 25.5912 8.51505 26.5457 10.2729C27.5002 12.0308 28.0001 13.9993 28 15.9996Z" fill="#1C1C1C"/>
<path d="M16 3C13.4288 3 10.9154 3.76244 8.77759 5.1909C6.63975 6.61935 4.97351 8.64968 3.98957 11.0251C3.00563 13.4006 2.74819 16.0144 3.2498 18.5362C3.75141 21.0579 4.98953 23.3743 6.80762 25.1924C8.6257 27.0105 10.9421 28.2486 13.4638 28.7502C15.9856 29.2518 18.5995 28.9944 20.9749 28.0104C23.3503 27.0265 25.3807 25.3603 26.8091 23.2224C28.2376 21.0846 29 18.5712 29 16C28.9964 12.5533 27.6256 9.24882 25.1884 6.81163C22.7512 4.37445 19.4467 3.00364 16 3ZM9.26001 24.6875C9.98342 23.5561 10.98 22.625 12.1579 21.9801C13.3358 21.3351 14.6571 20.9971 16 20.9971C17.3429 20.9971 18.6642 21.3351 19.8421 21.9801C21.02 22.625 22.0166 23.5561 22.74 24.6875C20.8129 26.1862 18.4413 26.9999 16 26.9999C13.5587 26.9999 11.1871 26.1862 9.26001 24.6875ZM12 15C12 14.2089 12.2346 13.4355 12.6741 12.7777C13.1137 12.1199 13.7384 11.6072 14.4693 11.3045C15.2002 11.0017 16.0044 10.9225 16.7804 11.0769C17.5563 11.2312 18.269 11.6122 18.8284 12.1716C19.3878 12.731 19.7688 13.4437 19.9231 14.2196C20.0775 14.9956 19.9983 15.7998 19.6955 16.5307C19.3928 17.2616 18.8801 17.8864 18.2223 18.3259C17.5645 18.7654 16.7911 19 16 19C14.9391 19 13.9217 18.5786 13.1716 17.8284C12.4214 17.0783 12 16.0609 12 15ZM24.22 23.3013C23.1047 21.6851 21.5365 20.4348 19.7125 19.7075C20.6923 18.9358 21.4072 17.878 21.7579 16.6811C22.1086 15.4843 22.0776 14.2079 21.6693 13.0294C21.2609 11.851 20.4955 10.8291 19.4794 10.1059C18.4634 9.38262 17.2472 8.99397 16 8.99397C14.7528 8.99397 13.5366 9.38262 12.5206 10.1059C11.5045 10.8291 10.7391 11.851 10.3307 13.0294C9.92238 14.2079 9.8914 15.4843 10.2421 16.6811C10.5928 17.878 11.3077 18.9358 12.2875 19.7075C10.4635 20.4348 8.89529 21.6851 7.78001 23.3013C6.37072 21.7165 5.4496 19.7581 5.12756 17.6619C4.80553 15.5657 5.09631 13.4211 5.9649 11.4864C6.83349 9.55163 8.24285 7.90922 10.0233 6.75692C11.8037 5.60462 13.8792 4.99156 16 4.99156C18.1208 4.99156 20.1963 5.60462 21.9768 6.75692C23.7572 7.90922 25.1665 9.55163 26.0351 11.4864C26.9037 13.4211 27.1945 15.5657 26.8724 17.6619C26.5504 19.7581 25.6293 21.7165 24.22 23.3013Z" fill="#D9D9DC"/>
</svg>
