<svg width="19" height="19" viewBox="0 0 19 19" fill="none" xmlns="http://www.w3.org/2000/svg">
<path d="M9.5 1.5L5.5 5.5L3.5 9.5L4 13L5.5 15L7.5 16.5L10.5 17L13 15.5L15 13V9L12.5 4.5L9.5 1.5Z" fill="#D9D9D9"/>
<path d="M12.9141 3.5439C11.9973 2.48512 10.9655 1.53172 9.8377 0.701323C9.73786 0.631387 9.61892 0.593872 9.49703 0.593872C9.37514 0.593872 9.2562 0.631387 9.15637 0.701323C8.03066 1.53207 7.00085 2.48546 6.08594 3.5439C4.04566 5.88699 2.96875 8.35699 2.96875 10.6875C2.96875 12.4197 3.65686 14.0809 4.88171 15.3057C6.10656 16.5306 7.7678 17.2187 9.5 17.2187C11.2322 17.2187 12.8934 16.5306 14.1183 15.3057C15.3431 14.0809 16.0312 12.4197 16.0312 10.6875C16.0312 8.35699 14.9543 5.88699 12.9141 3.5439ZM13.9405 13.6562H5.05949C4.81298 13.2866 4.61353 12.8877 4.46574 12.4687H14.5372C14.3885 12.8878 14.1881 13.2867 13.9405 13.6562ZM14.8438 10.6875C14.8436 10.8859 14.8322 11.0841 14.8096 11.2812H4.19039C4.16777 11.0841 4.15638 10.8859 4.15625 10.6875C4.15625 10.4895 4.16516 10.2916 4.18297 10.0937H14.817C14.8348 10.2916 14.8438 10.4895 14.8438 10.6875ZM9.5 1.92964C10.5509 2.75347 13.7201 5.47285 14.6092 8.90621H4.39078C5.27992 5.47433 8.44906 2.75496 9.5 1.92964ZM6.14605 14.8437H12.8539C11.905 15.612 10.721 16.0311 9.5 16.0311C8.27902 16.0311 7.09504 15.612 6.14605 14.8437Z" fill="#1C1C1C"/>
</svg>
